<?xml version="1.0" encoding="UTF-8"?><svg id="Layer_1" xmlns="http://www.w3.org/2000/svg" viewBox="0 0 420.29 112.51"><defs><style>.cls-1{stroke:#051739;stroke-miterlimit:10;stroke-width:.25px;}.cls-1,.cls-2{fill:#051739;}.cls-2{font-family:Magistral-Bold, Magistral;font-size:40.34px;font-weight:700;}.cls-3{letter-spacing:-.06em;}.cls-4{letter-spacing:.02em;}.cls-5{letter-spacing:0em;}</style></defs><text class="cls-2" transform="translate(103.11 73.26)"><tspan x="0" y="0">S</tspan><tspan class="cls-3" x="27.84" y="0">P</tspan><tspan x="55.75" y="0">ACE</tspan><tspan class="cls-4" x="140.35" y="0">C</tspan><tspan x="167.71" y="0">AD</tspan><tspan class="cls-5" x="229.07" y="0">E</tspan><tspan x="256.95" y="0">T</tspan></text><path class="cls-1" d="M47.48,76.31c-.19,1.37-.75,2.62-1.57,3.65,4.18,3.01,9.08,4.61,14.25,4.61,11.75,0,21.73-8.32,23.97-19.64-5.65,3.23-12.78,6.12-20.33,8.22-5.52,1.54-11.13,2.63-16.32,3.15Z"/><path class="cls-1" d="M40.02,69.64c-3.11,0-5.63,2.53-5.63,5.63s2.53,5.63,5.63,5.63,5.63-2.53,5.63-5.63-2.52-5.63-5.63-5.63Z"/><path class="cls-1" d="M35.45,69.29c-1.1-2.93-1.65-6.01-1.65-9.18,0-.39.02-.76.04-1.14-5.87,3.93-8.87,7.89-8.08,10.75.55,1.98,2.97,3.49,6.84,4.33.32-1.94,1.36-3.63,2.85-4.76Z"/><path class="cls-1" d="M80.51,33.92c1.65,0,2.99-1.34,2.99-2.99s-1.34-2.99-2.99-2.99-2.99,1.34-2.99,2.99,1.34,2.99,2.99,2.99Z"/><path class="cls-1" d="M60.16,35.66c-12.41,0-22.86,9.28-24.28,21.57-.12.94-.17,1.87-.17,2.87,0,2.83.48,5.59,1.42,8.21.89-.37,1.87-.58,2.9-.58,3.85,0,7.04,2.92,7.48,6.66,5.02-.53,10.45-1.58,15.78-3.07,8-2.23,15.49-5.34,21.2-8.8.08-.77.13-1.57.13-2.41,0-5.51-1.79-10.71-5.17-15.03-4.67-5.99-11.7-9.42-19.28-9.42Z"/><path class="cls-1" d="M94.57,50.51c-.8-2.86-5.42-4.69-12.48-5.02,2.9,4.33,4.43,9.34,4.43,14.61,0,.39-.02.76-.04,1.15,5.87-3.93,8.88-7.88,8.08-10.74Z"/></svg>